# xmcd
#
# Track frame offsets:
#	150
#	13805
#	29547
#	44035
#	58501
#	73215
#	91361
#
# Disc length: 1474 seconds
# Revision: 0
# Processed by: cddbd v1.5.2PL0 Copyright (c) Steve Scherf et al.
# Submitted via: dBpowerAMP V12.0
#
DISCID=6305c007
DTITLE=Hitchville - Hitchville
DYEAR=2012
DGENRE=Country
TTITLE0=Fly
TTITLE1=Need
TTITLE2=Hole In The Wall
TTITLE3=I'll Be Right There
TTITLE4=Whoop It Up
TTITLE5=I'm Great
TTITLE6=I Ain't Gonna Lie
EXTD=
EXTT0=
EXTT1=
EXTT2=
EXTT3=
EXTT4=
EXTT5=
EXTT6=
PLAYORDER=
